<svg width="26" height="24" viewBox="0 0 26 24" fill="none" xmlns="http://www.w3.org/2000/svg">
<path fill-rule="evenodd" clip-rule="evenodd" d="M0.838531 0.132037C0.635309 -0.0549268 0.319001 -0.0417473 0.132037 0.161474C-0.0549268 0.364696 -0.0417473 0.681004 0.161474 0.867968L12.2615 12L0.161474 23.132C-0.0417473 23.319 -0.0549268 23.6353 0.132037 23.8385C0.319001 24.0418 0.635309 24.0549 0.838531 23.868L13 12.6794L25.1615 23.868C25.3647 24.0549 25.681 24.0418 25.868 23.8385C26.0549 23.6353 26.0418 23.319 25.8385 23.132L13.7385 12L25.8385 0.867968C26.0418 0.681004 26.0549 0.364696 25.868 0.161474C25.681 -0.0417473 25.3647 -0.0549268 25.1615 0.132037L13 11.3206L0.838531 0.132037Z" fill="white"/>
</svg>
