<svg width="93" height="93" viewBox="0 0 93 93" fill="none" xmlns="http://www.w3.org/2000/svg">
<rect width="93" height="93" rx="20" fill="url(#paint0_linear_1032_43)"/>
<path d="M62 62.4574C59.8889 62.4574 58.2222 60.7633 58.2222 58.7413C58.2222 56.7193 59.9444 55.0251 62 55.0251C64.1111 55.0251 65.7778 56.7193 65.7778 58.7413C65.7778 60.7633 64.1111 62.4574 62 62.4574ZM71.0556 46.5546C71.3889 47.1557 71.5 47.8115 71.5 48.5219V56.6646C71.5 57.4843 70.7778 58.1948 69.9444 58.1948H67.7778C67.5 55.0798 64.7222 52.7299 61.5556 53.0031C58.7222 53.2217 56.5 55.4077 56.2778 58.1948H41.7778C41.5 55.0798 38.7222 52.7299 35.5556 53.0031C32.7222 53.2217 30.5 55.4077 30.2778 58.1948H29.4444C28.6111 58.1948 27.8889 57.4843 27.8889 56.6646V49.5056H35.3333C36.1111 49.5056 36.7222 48.9045 36.7222 48.1394C36.7222 48.0847 36.7222 48.0301 36.7222 47.9754C36.6111 47.265 36 46.7185 35.2778 46.7732H23.1667C22.2222 46.7732 21.5 46.0627 21.5 45.1337C21.5 44.2047 22.2222 43.4942 23.1667 43.4942H38.0556C38.8333 43.4942 39.4444 42.8931 39.4444 42.128C39.4444 42.0734 39.4444 42.0187 39.4444 41.9641C39.3333 41.2536 38.7222 40.7072 38 40.7618H26.7222C25.7778 40.7618 25.0556 40.0514 25.0556 39.1223C25.0556 38.1933 25.7778 37.4829 26.7222 37.4829H40.8333C41.6111 37.4829 42.2222 36.8817 42.2222 36.1167C42.2222 36.062 42.2222 36.0074 42.2222 35.9527C42.1111 35.2423 41.5 34.6958 40.7778 34.7504H27.8333V32.6738C27.8333 31.5262 28.7778 30.5425 30 30.5425H56.2222C57.3889 30.5425 58.3889 31.4715 58.3889 32.6738V39.1223H66.6111C67 39.1223 67.3333 39.3409 67.5 39.6688L71.0556 46.5546ZM69.5556 47.9754L66.0556 41.0897H58.3889V48.5766H69.5556V47.9754ZM39.7778 58.6866C39.7778 56.61 38.0556 54.9705 36 54.9705C33.9444 54.9705 32.2222 56.6646 32.2222 58.6866C32.2222 60.7633 33.9444 62.4027 36 62.4027C38.1111 62.4574 39.7778 60.7633 39.7778 58.6866Z" fill="#EFF1E8"/>
<defs>
<linearGradient id="paint0_linear_1032_43" x1="13.4135" y1="6.25961" x2="46.5" y2="93" gradientUnits="userSpaceOnUse">
<stop stop-color="#93C353"/>
<stop offset="0.491997" stop-color="#82B047"/>
<stop offset="1" stop-color="#719D3B"/>
</linearGradient>
</defs>
</svg>
