<svg width="94" height="93" viewBox="0 0 94 93" fill="none" xmlns="http://www.w3.org/2000/svg">
<rect x="0.5" width="93" height="93" rx="20" fill="url(#paint0_linear_1032_36)"/>
<path d="M45.0672 66.145C45.0672 66.145 22 51.4433 22 41.7465C22 26.4192 39.3391 22.3528 45.0672 32.3624C48.473 26.2628 56.2137 25.3244 61.787 29.078L42.745 48.3153L35.3139 40.8081C33.4562 39.0876 30.8243 41.7465 32.5273 43.6233L42.745 53.7893L68.7536 27.8268C70.4565 26.1064 73.2431 28.7652 71.3854 30.642L66.741 35.0212C67.6699 36.898 68.1343 39.0876 68.1343 41.7465C68.1343 51.4433 45.0672 66.145 45.0672 66.145Z" fill="#EFF1E8"/>
<defs>
<linearGradient id="paint0_linear_1032_36" x1="13.9135" y1="6.25961" x2="47" y2="93" gradientUnits="userSpaceOnUse">
<stop stop-color="#93C353"/>
<stop offset="1" stop-color="#719D3B"/>
</linearGradient>
</defs>
</svg>
