<svg width="94" height="93" viewBox="0 0 94 93" fill="none" xmlns="http://www.w3.org/2000/svg">
<rect x="0.5" width="93" height="93" rx="20" fill="url(#paint0_linear_1032_26)"/>
<path d="M71.9078 23.4354C71.8026 21.8762 69.961 21.1235 68.856 22.2526C59.7534 31.6612 45.7047 31.3924 44.8102 41.3923C44.5998 43.5966 45.389 45.6934 46.757 47.5214C53.4394 40.6934 60.5426 38.3816 60.9109 38.2203C61.0162 38.1665 61.0688 38.1665 61.174 38.1665C59.3324 39.2418 48.546 46.016 43.8105 58.3816C41.3375 54.5106 37.4965 49.7257 34.3395 47.0375C32.1822 45.0483 30.3933 43.7579 29.8671 43.4354C29.9197 43.4354 29.9723 43.4354 30.0249 43.4891C30.288 43.5967 35.7602 44.9407 40.4957 49.9945C41.4428 48.7042 41.6532 47.7364 41.548 46.2311C41.0218 38.973 30.8142 38.9192 24.395 31.93C23.6057 31.0698 22.2377 31.6074 22.1324 32.7364C21.6589 39.2418 22.2903 50.3171 26.7627 53.5429C29.2357 55.3708 33.1293 55.102 36.1811 53.7042C38.8119 56.7687 41.3375 60.4246 42.4425 62.7364C41.9163 64.9407 41.6006 67.3063 41.548 69.7794C41.548 70.6934 42.2846 71.4999 43.1791 71.4999C43.1791 71.4999 43.1791 71.4999 43.2317 71.4999C44.1262 71.4999 44.8628 70.7472 44.9155 69.8332C45.0207 62.2526 48.0198 56.1235 51.4925 51.4999C55.7545 53.9192 61.2266 54.5644 64.9624 51.93C71.1712 47.6289 72.3814 32.4139 71.9078 23.4354Z" fill="#EFF1E8"/>
<path d="M35.7069 33.1129C37.6011 33.5968 39.127 35.1559 39.6006 37.0914C39.6532 37.3602 39.9163 37.5753 40.1794 37.5753C40.4424 37.5753 40.7055 37.3602 40.7581 37.0914C41.2317 35.1559 42.7576 33.5968 44.6518 33.1129C44.9149 33.0592 45.1253 32.7904 45.1253 32.5215C45.1253 32.2527 44.9149 31.9839 44.6518 31.9301C42.705 31.4463 41.2317 29.9409 40.7581 27.9516C40.7055 27.6828 40.4424 27.4678 40.1794 27.4678C39.9163 27.4678 39.6532 27.6828 39.6006 27.9516C39.127 29.9409 37.6538 31.4463 35.7069 31.9301C35.4439 31.9839 35.2334 32.2527 35.2334 32.5215C35.2334 32.7904 35.4439 33.0054 35.7069 33.1129Z" fill="#EFF1E8"/>
<path d="M44.9678 26.2312C46.5463 26.6075 47.8617 27.9516 48.23 29.5645C48.2827 29.7796 48.4931 29.9409 48.7036 29.9409C48.9667 29.9409 49.1245 29.7796 49.1771 29.5645C49.5455 27.9516 50.8609 26.6075 52.4394 26.2312C52.6498 26.1774 52.8077 25.9624 52.8077 25.6935C52.8077 25.4247 52.6498 25.2634 52.4394 25.2097C50.8083 24.8333 49.5455 23.543 49.1771 21.8763C49.1245 21.6613 48.9141 21.5 48.651 21.5C48.3879 21.5 48.23 21.6613 48.1774 21.8763C47.8091 23.543 46.5463 24.8333 44.9152 25.2097C44.7047 25.2634 44.5469 25.4785 44.5469 25.6935C44.5995 25.9624 44.7573 26.1774 44.9678 26.2312Z" fill="#EFF1E8"/>
<path d="M27.4992 28.6504C28.9724 29.0267 30.1826 30.2633 30.5509 31.7686C30.6036 31.9837 30.814 32.145 31.0245 32.145C31.235 32.145 31.4454 31.9837 31.498 31.7686C31.8664 30.2633 33.0765 29.0267 34.5498 28.6504C34.7603 28.5966 34.9181 28.3815 34.9181 28.1665C34.9181 27.9514 34.7603 27.7364 34.5498 27.6826C33.0239 27.3063 31.8664 26.1235 31.498 24.5643C31.4454 24.3493 31.235 24.188 31.0245 24.188C30.814 24.188 30.6036 24.3493 30.5509 24.5643C30.1826 26.1235 29.0251 27.3063 27.4992 27.6826C27.2887 27.7364 27.1309 27.9514 27.1309 28.1665C27.1309 28.3815 27.2887 28.5966 27.4992 28.6504Z" fill="#EFF1E8"/>
<defs>
<linearGradient id="paint0_linear_1032_26" x1="13.9135" y1="6.25961" x2="47" y2="93" gradientUnits="userSpaceOnUse">
<stop stop-color="#93C353"/>
<stop offset="1" stop-color="#719D3B"/>
</linearGradient>
</defs>
</svg>
