<svg width="51" height="50" viewBox="0 0 51 50" fill="none" xmlns="http://www.w3.org/2000/svg">
<path d="M50.5893 21.7798H25.368V21.8289C26.253 23.8938 26.7938 26.057 27.0888 28.2203H43.903C43.313 32.7925 41.4939 36.4307 38.3966 39.1839C35.2992 41.9371 31.4152 43.3137 26.6463 43.3137C26.253 43.3137 25.9088 43.3137 25.5155 43.2645C24.7289 45.8702 23.844 48.1809 23.1065 49.8525C24.0898 49.9508 25.0731 50 26.0563 50C33.8243 50 39.8715 47.6893 44.2471 42.9695C48.6227 38.2989 50.7859 32.3009 50.7859 24.9262C50.8351 23.5988 50.7368 22.5172 50.5893 21.7798ZM26.3022 0C18.3867 0 12.0445 2.31071 7.17728 6.98131C6.98062 7.17797 6.83313 7.32546 6.63647 7.52212C9.488 8.30875 11.9954 9.34119 14.1586 10.4228C17.4034 7.86627 21.4841 6.588 26.3513 6.588C31.6611 6.588 36.3808 8.45624 40.5106 12.2419L45.1812 6.93216C40.019 2.31072 33.6768 0 26.3022 0Z" fill="#424E44"/>
<path d="M18.6332 49.1641C14.3068 48.0825 10.5703 46.0668 7.37463 43.0186C2.45821 38.348 0 32.4975 0 25.3687C3.294 26.6961 6.0472 28.3677 8.30875 30.2851C11.8977 33.2841 14.3068 36.8731 15.9292 40.4621C17.3058 43.5103 18.1416 46.5092 18.6332 49.1641Z" fill="#424E44"/>
<path d="M21.5338 43.363C21.3863 43.953 21.2388 44.5429 21.0913 45.0837C20.8947 44.248 20.698 43.363 20.403 42.478C18.6331 36.48 14.995 29.6954 7.62033 25.1231C5.4571 23.7957 2.99889 22.6649 0.196533 21.7799C0.688175 17.3551 2.11394 13.5203 4.42466 10.2263C6.34206 10.8655 8.11197 11.6521 9.68523 12.4387C10.0785 12.6354 10.521 12.8812 10.9143 13.0779C16.0274 16.0277 19.1248 19.7642 20.8947 23.8448C21.7796 25.9097 22.3204 28.0729 22.6154 30.2361C23.1562 34.8084 22.5171 39.3807 21.5338 43.363Z" fill="#424E44"/>
</svg>
