<svg width="25" height="23" viewBox="0 0 25 23" fill="none" xmlns="http://www.w3.org/2000/svg">
<path d="M24.3369 0.669262C23.9169 0.313102 23.2572 0.262142 22.5751 0.535982H22.574C21.8566 0.823822 2.26782 9.22606 1.47038 9.56934C1.32534 9.61974 0.0586205 10.0924 0.1891 11.1452C0.30558 12.0944 1.32366 12.4875 1.44798 12.5329L6.42806 14.2381C6.75846 15.3379 7.97646 19.3957 8.24582 20.2625C8.41382 20.8029 8.68766 21.513 9.16758 21.6592C9.5887 21.8216 10.0076 21.6732 10.2786 21.4604L13.3233 18.6363L18.2385 22.4695L18.3555 22.5395C18.6893 22.6873 19.009 22.7613 19.3142 22.7613C19.55 22.7613 19.7762 22.717 19.9924 22.6285C20.7288 22.3261 21.0233 21.6245 21.0541 21.5449L24.7255 2.46182C24.9495 1.44262 24.6381 0.924062 24.3369 0.669262ZM10.8201 14.9201L9.14014 19.4001L7.46014 13.8001L20.3401 4.28014L10.8201 14.9201Z" fill="white"/>
</svg>
