<svg width="23" height="20" viewBox="0 0 23 20" fill="none" xmlns="http://www.w3.org/2000/svg">
<path d="M22.0846 0.275917C21.7093 -0.0420827 21.1199 -0.0875827 20.5104 0.156917H20.5094C19.8685 0.413917 2.36576 7.91592 1.65324 8.22242C1.52365 8.26742 0.391826 8.68942 0.508411 9.62942C0.612486 10.4769 1.52215 10.8279 1.63323 10.8684L6.08295 12.3909C6.37817 13.3729 7.46646 16.9959 7.70713 17.7699C7.85724 18.2524 8.10192 18.8864 8.53073 19.0169C8.907 19.1619 9.28127 19.0294 9.52345 18.8394L12.2439 16.3179L16.6356 19.7404L16.7402 19.8029C17.0384 19.9349 17.3241 20.0009 17.5968 20.0009C17.8075 20.0009 18.0096 19.9614 18.2027 19.8824C18.8607 19.6124 19.1239 18.9859 19.1514 18.9149L22.4318 1.87642C22.632 0.966417 22.3538 0.503417 22.0846 0.275917ZM10.0073 12.9999L8.50621 16.9999L7.00512 11.9999L18.5135 3.49992L10.0073 12.9999Z" fill="#424E44"/>
</svg>
