<svg width="275" height="26" viewBox="0 0 275 26" fill="none" xmlns="http://www.w3.org/2000/svg">
<path d="M14.0088 15.7589C17.8902 17.1514 19.8086 20.2071 19.8086 24.8875H16.1948C16.1948 22.2959 15.3918 20.2458 13.8303 18.8146C12.2688 17.3834 10.0381 16.6485 7.13822 16.6485H3.56911V24.8875H0V4.5415H10.4396C13.1165 4.5415 15.2133 5.12171 16.6856 6.28213C18.1578 7.44254 18.9163 8.83505 18.9163 10.4983C18.9163 11.7361 18.4701 12.8191 17.6225 13.7862C16.7748 14.7532 15.5702 15.3721 14.0088 15.7589ZM3.56911 7.13311V14.1343H10.395C11.9119 14.1343 13.1611 13.7862 14.0534 13.1286C14.9457 12.4323 15.3918 11.62 15.3918 10.6144C15.3918 9.64734 14.9457 8.83505 14.0534 8.1388C13.1611 7.48123 11.9119 7.13311 10.3504 7.13311H3.56911Z" fill="#88B74C"/>
<path d="M36.4942 24.8875L34.9327 21.3676H28.2406L26.6792 24.8875H23.0654L30.159 10.3049H33.1036L40.1972 24.8875H36.4942ZM29.4006 18.8533H33.862L31.6313 13.8635L29.4006 18.8533Z" fill="#88B74C"/>
<path d="M44.7031 24.8875V10.3049H48.1384V24.8875H44.7031Z" fill="#88B74C"/>
<path d="M66.7857 10.3049H69.9087V24.8875H66.8749L57.6845 14.5211V24.8875H54.5615V10.3049H57.5507L66.7411 20.71V10.3049H66.7857Z" fill="#88B74C"/>
<path d="M88.2903 17.2285C89.2718 17.5767 90.0302 18.0795 90.5656 18.7371C91.101 19.3947 91.3687 20.0909 91.3687 20.8645C91.3687 21.9476 90.7887 22.8759 89.6733 23.6882C88.558 24.4618 86.9965 24.8873 85.0335 24.8873H76.0215V10.1113H84.0966C86.0596 10.1113 87.6211 10.4981 88.6918 11.2717C89.8072 12.0454 90.3425 12.9737 90.3425 14.0954C90.4318 15.4106 89.7179 16.4549 88.2903 17.2285ZM79.4568 12.3548V16.3002H84.1858C85.0335 16.3002 85.7027 16.1068 86.1934 15.72C86.6842 15.3332 86.9519 14.8304 86.9519 14.2888C86.9519 13.7473 86.6842 13.2831 86.1488 12.935C85.6135 12.5869 84.8996 12.3935 84.0074 12.3935H79.4568V12.3548ZM84.7212 22.6051C85.7027 22.6051 86.5057 22.4117 87.0857 22.0249C87.6657 21.6381 87.9334 21.174 87.9334 20.6324C87.9334 20.0522 87.6211 19.5494 87.0411 19.1626C86.4611 18.7758 85.6135 18.5824 84.5427 18.5824H79.4568V22.6051H84.7212Z" fill="#88B74C"/>
<path d="M109.973 23.1468C108.233 24.6166 106.047 25.3516 103.37 25.3516C100.693 25.3516 98.5072 24.6166 96.7673 23.1468C95.0274 21.6769 94.1797 19.8203 94.1797 17.5381C94.1797 15.3333 95.072 13.4767 96.8119 12.0068C98.5519 10.5369 100.738 9.802 103.37 9.802C106.047 9.802 108.233 10.5369 109.973 12.0068C111.713 13.4767 112.561 15.3333 112.561 17.5381C112.605 19.8203 111.713 21.6769 109.973 23.1468ZM99.3103 21.2514C100.381 22.2185 101.764 22.6826 103.415 22.6826C105.065 22.6826 106.449 22.2185 107.519 21.2514C108.59 20.2844 109.125 19.0853 109.125 17.5381C109.125 16.0682 108.59 14.8692 107.519 13.9021C106.449 12.9351 105.065 12.471 103.415 12.471C101.764 12.471 100.381 12.9351 99.3103 13.9021C98.2396 14.8692 97.7042 16.0682 97.7042 17.5381C97.7042 19.0467 98.2396 20.2844 99.3103 21.2514Z" fill="#88B74C"/>
<path d="M136.652 10.3049H140.042L135.135 24.8875H131.521L127.372 13.9409L123.268 24.8875H119.431L114.791 10.3049H118.271L121.751 21.3676L125.9 10.3049H128.889L133.217 21.3676L136.652 10.3049Z" fill="#88B74C"/>
<path d="M193.891 18.6986C196.658 19.743 198.041 21.7931 198.041 24.8875H194.605C194.605 23.3016 194.07 22.0251 192.955 21.0968C191.839 20.1685 190.367 19.7043 188.493 19.7043H186.129V24.8875H182.693V10.3049H191.17C193.088 10.3049 194.605 10.6917 195.721 11.504C196.836 12.2776 197.416 13.3607 197.416 14.7145C197.416 15.6815 197.104 16.5325 196.479 17.2287C195.854 17.925 194.962 18.4278 193.891 18.6986ZM186.084 12.8192V17.1127H190.902C191.795 17.1127 192.553 16.9193 193.133 16.4938C193.713 16.0683 193.981 15.5655 193.981 14.9079C193.981 14.2503 193.713 13.7475 193.133 13.3607C192.553 12.9739 191.795 12.8192 190.768 12.8192H186.084Z" fill="#88B74C"/>
<path d="M206.562 22.4508H216.6V24.8876H203.127V10.3438H216.288V12.7419H206.562V16.1845H215.663V18.5827H206.562V22.4508Z" fill="#88B74C"/>
<path d="M225.167 22.4508H235.205V24.8876H221.731V10.3438H234.893V12.7419H225.167V16.1845H234.268V18.5827H225.167V22.4508Z" fill="#88B74C"/>
<path d="M252.337 10.3049H255.459V24.8875H252.426L243.235 14.5211V24.8875H240.112V10.3049H243.101L252.292 20.71V10.3049H252.337Z" fill="#88B74C"/>
<path d="M267.817 25.3517C266.166 25.3517 264.649 25.0809 263.177 24.5781C261.749 24.0753 260.634 23.3403 259.831 22.3733L261.883 20.7874C263.356 22.1025 265.319 22.7988 267.862 22.7988C268.977 22.7988 269.869 22.6441 270.538 22.3346C271.208 22.0252 271.564 21.561 271.564 20.9808C271.564 20.4006 271.252 19.9364 270.583 19.6657C269.914 19.3562 268.932 19.0855 267.638 18.8147C267.371 18.776 267.192 18.7373 267.059 18.6987C266.122 18.5053 265.408 18.3505 264.917 18.2345C264.426 18.1185 263.846 17.9637 263.177 17.693C262.508 17.4609 261.973 17.1901 261.66 16.9194C261.303 16.6486 261.036 16.3005 260.768 15.8363C260.5 15.4108 260.366 14.8693 260.366 14.2891C260.366 12.8579 261.036 11.7748 262.329 11.0012C263.623 10.2276 265.274 9.84082 267.237 9.84082C268.709 9.84082 270.137 10.0729 271.475 10.5371C272.814 11.0012 273.884 11.6975 274.687 12.5871L272.769 14.3664C271.52 13.0513 269.646 12.3937 267.103 12.3937C264.872 12.3937 263.757 12.9353 263.757 14.057C263.757 14.5212 263.98 14.908 264.516 15.2174C265.006 15.5269 265.497 15.7203 265.943 15.8363C266.389 15.9523 267.148 16.1071 268.174 16.3005C269.066 16.4939 269.735 16.6486 270.226 16.726C270.717 16.842 271.297 16.9967 272.011 17.2675C272.724 17.4996 273.26 17.7703 273.617 18.0411C273.974 18.3119 274.286 18.6987 274.598 19.1628C274.866 19.627 275 20.1298 275 20.71C275 22.1412 274.331 23.3016 272.948 24.1139C271.564 24.9649 269.869 25.3517 267.817 25.3517Z" fill="#88B74C"/>
<path d="M177.91 10.8951H165.351V10.9403C165.803 11.9801 166.074 13.0199 166.209 14.1049H174.567C174.296 16.3653 173.347 18.2188 171.856 19.575C170.32 20.9313 168.378 21.6546 165.984 21.6546C165.803 21.6546 165.622 21.6546 165.441 21.6546C165.08 22.9656 164.628 24.0958 164.222 24.9548C164.719 25 165.216 25 165.713 25C169.552 25 172.579 23.8246 174.747 21.519C176.916 19.2134 178 16.1844 178 12.5226C178 11.7993 178 11.2568 177.91 10.8951ZM165.803 0C161.873 0 158.71 1.17541 156.271 3.48101C156.181 3.57143 156.09 3.66185 156 3.75226C157.446 4.15913 158.665 4.65642 159.749 5.19891C161.376 3.93309 163.363 3.30018 165.803 3.30018C168.423 3.30018 170.772 4.24955 172.85 6.10307L175.199 3.43581C172.624 1.17541 169.507 0 165.803 0Z" fill="#88B74C"/>
<path d="M162 25C159.947 24.4524 158.112 23.4484 156.583 21.8968C154.223 19.5693 153.044 16.603 153 13.0435C154.573 13.6824 155.927 14.5494 157.019 15.5078C158.723 17.0137 159.903 18.8392 160.689 20.619C161.345 22.1706 161.738 23.6765 162 25Z" fill="#88B74C"/>
<path d="M163.391 21.9634C163.302 22.2812 163.258 22.5537 163.17 22.8261C163.081 22.4174 162.993 21.9634 162.86 21.5547C162.02 18.5578 160.251 15.1521 156.626 12.8817C155.564 12.2006 154.371 11.6557 153 11.2016C153.221 9.02205 153.929 7.06951 155.078 5.43481C156.007 5.75267 156.847 6.11593 157.643 6.52461C157.864 6.61542 158.041 6.75165 158.217 6.84247C160.693 8.29553 162.197 10.2027 163.081 12.2006C163.523 13.245 163.789 14.3348 163.921 15.3792C164.142 17.6496 163.877 19.9654 163.391 21.9634Z" fill="#88B74C"/>
</svg>
